<svg xmlns="http://www.w3.org/2000/svg" style="isolation:isolate" width="805" height="659.5"><path fill="#fff" d="M208 81h805v659.5H208z"/><g style="isolation:isolate" fill="#FF530D" stroke="rgba(0,0,0,0)"><path d="M454 554.5l21 21 246-246-102-101-215 215-43-43 259-257 185 185-331 331-63-63"/><path d="M352 538.5l-83-85 41-42 84 84-42 43zm-144-145l-64-63L475 .5l60 60-41 42-19-18-246 246 21 21"/><path d="M598 267l63 62.5-330 330-60-60.5 41-42 19 18.5 246-246-21-21.5c13.976-13.178 27.447-26.707 42-41zm-60-58.5L475 145 187 432 86 331 331 85l21 20.5 43-43L332 0 0 330l187 187 288-288 21 20.5 42-41z"/></g></svg>