<svg xmlns="http://www.w3.org/2000/svg" style="isolation:isolate" viewBox="38 1432 250 204.81366459627338"><path d="M178.994 1604.205l6.522 6.522 76.397-76.398-31.677-31.366-66.77 66.77-13.354-13.354 80.435-79.814L288 1534.02l-102.795 102.795-19.565-19.566" fill="#FF530D" stroke="rgba(0,0,0,0)"/><path d="M147.317 1599.236l-25.777-26.397 12.733-13.044 26.087 26.087-13.043 13.354zm-44.721-45.031L82.72 1534.64l102.796-102.485 18.633 18.634-12.733 13.043-5.9-5.59-76.398 76.398 6.522 6.521" fill="#FF530D" stroke="rgba(0,0,0,0)"/><path d="M223.714 1514.92l19.566 19.41-102.485 102.484-18.634-18.79 12.733-13.043 5.901 5.746 76.398-76.398-6.522-6.677c4.34-4.092 8.524-8.294 13.043-12.733zm-18.634-18.168l-19.564-19.72-89.441 89.13-31.367-31.367 76.087-76.397 6.522 6.366 13.354-13.354-19.565-19.41L38 1534.484l58.075 58.075 89.44-89.441 6.522 6.366 13.044-12.732z" fill="#FF530D" stroke="rgba(0,0,0,0)"/></svg>