<?xml version="1.0" standalone="no"?><!-- Generator: Gravit.io --><svg xmlns="http://www.w3.org/2000/svg" xmlns:xlink="http://www.w3.org/1999/xlink" style="isolation:isolate" viewBox="38 1432 250 204.81366459627338"><path d=" M 178.99378881987576 1604.2049689440994 L 185.51552795031057 1610.7267080745341 L 261.9130434782609 1534.329192546584 L 230.2360248447205 1502.9627329192547 L 163.46583850931677 1569.7329192546583 L 150.11180124223603 1556.3788819875776 L 230.54658385093168 1476.5652173913043 L 288 1534.0186335403728 L 185.2049689440994 1636.8136645962734 L 165.63975155279502 1617.248447204969" fill="rgb(255,83,13)" stroke-width="1" stroke="rgba(0,0,0,0)"/><path d=" M 147.31677018633536 1599.2360248447205 L 121.54037267080743 1572.8385093167701 L 134.2732919254658 1559.7950310559006 L 160.36024844720495 1585.8819875776398 L 147.31677018633536 1599.2360248447205 Z " fill="rgb(255,83,13)" stroke-width="1" stroke="rgba(0,0,0,0)"/><path d=" M 102.59627329192546 1554.2049689440994 L 82.72049689440993 1534.6397515527951 L 185.51552795031057 1432.1552795031057 L 204.14906832298138 1450.7888198757764 L 191.416149068323 1463.832298136646 L 185.51552795031057 1458.2422360248447 L 109.11801242236025 1534.6397515527951 L 115.63975155279503 1541.1614906832299" fill="rgb(255,83,13)" stroke-width="1" stroke="rgba(0,0,0,0)"/><path d=" M 223.71428571428572 1514.919254658385 L 243.27950310559007 1534.3291925465837 L 140.7950310559006 1636.8136645962732 L 122.16149068322981 1618.0248447204967 L 134.8944099378882 1604.9813664596272 L 140.7950310559006 1610.7267080745341 L 217.19254658385094 1534.3291925465837 L 210.67080745341616 1527.6521739130433 C 215.01107724164035 1523.5595097681787 219.19483441965508 1519.3581737784916 223.71428571428572 1514.919254658385 Z " fill="rgb(255,83,13)" stroke-width="1" stroke="rgba(0,0,0,0)"/><path d=" M 205.08074534161491 1496.751552795031 L 185.51552795031057 1477.0310559006211 L 96.07453416149067 1566.1614906832299 L 64.70807453416148 1534.7950310559006 L 140.79503105590064 1458.3975155279504 L 147.31677018633542 1464.7639751552795 L 160.67080745341616 1451.4099378881988 L 141.1055900621118 1432 L 38 1534.4844720496894 L 96.07453416149067 1592.55900621118 L 185.51552795031057 1503.1180124223604 L 192.03726708074535 1509.4844720496894 L 205.08074534161491 1496.751552795031 Z " fill="rgb(255,83,13)" stroke-width="1" stroke="rgba(0,0,0,0)"/></svg>