<?xml version="1.0" standalone="no"?>
<!DOCTYPE svg PUBLIC "-//W3C//DTD SVG 20010904//EN"
 "http://www.w3.org/TR/2001/REC-SVG-20010904/DTD/svg10.dtd">
<svg version="1.0" xmlns="http://www.w3.org/2000/svg"
 width="128.000000pt" height="128.000000pt" viewBox="0 0 128.000000 128.000000"
 preserveAspectRatio="xMidYMid meet">
<metadata>
Created by potrace 1.11, written by Peter Selinger 2001-2013
</metadata>
<g transform="translate(0.000000,128.000000) scale(0.100000,-0.100000)"
fill="#000000" stroke="none">
<path d="M0 640 l0 -640 640 0 640 0 0 640 0 640 -640 0 -640 0 0 -640z m458
240 c47 -21 61 -43 42 -65 -10 -12 -16 -11 -41 7 -31 23 -126 36 -173 24 -52
-13 -79 -69 -60 -121 9 -23 48 -41 145 -65 133 -34 169 -66 169 -148 0 -50
-29 -95 -76 -117 -57 -28 -172 -25 -241 4 -68 30 -88 51 -70 75 13 18 16 17
53 -7 113 -75 274 -50 274 43 0 50 -33 73 -150 105 -130 35 -170 67 -170 137
0 93 70 148 190 148 43 0 79 -7 108 -20z m439 -121 c15 -5 40 -22 56 -37 l27
-26 0 32 c0 29 3 32 31 32 l30 0 -3 -212 c-3 -194 -5 -216 -24 -248 -31 -54
-86 -80 -167 -80 -77 0 -126 18 -157 58 -19 23 -19 25 -3 38 15 11 22 9 43
-11 71 -68 198 -57 234 20 9 18 16 52 16 75 l0 42 -30 -26 c-47 -39 -101 -52
-152 -37 -107 32 -167 163 -122 269 40 96 135 144 221 111z"/>
<path d="M788 703 c-59 -37 -86 -139 -54 -201 29 -56 63 -77 123 -77 50 0 57
3 89 37 31 35 34 43 34 100 0 45 -6 72 -20 95 -36 59 -116 80 -172 46z"/>
</g>
</svg>
