<?xml version="1.0" standalone="no"?><!-- Generator: Gravit.io --><svg xmlns="http://www.w3.org/2000/svg" xmlns:xlink="http://www.w3.org/1999/xlink" style="isolation:isolate" width="805" height="659.5"><g transform="translate(208,81)"><rect width="805" height="659.5" style="fill:rgb(255,255,255)"/><g style="isolation:isolate"><path d=" M 246 473.4999999999999 L 267 494.5 L 512.9999999999999 248.4999999999999 L 410.99999999999994 147.4999999999999 L 196 362.4999999999999 L 153 319.4999999999999 L 412 62.499999999999886 L 597 247.4999999999999 L 266.00000000000006 578.5 L 203 515.4999999999999" fill="rgb(255,83,13)" stroke-width="1" stroke="rgba(0,0,0,0)"/><path d=" M 143.99999999999997 457.49999999999994 L 60.99999999999997 372.49999999999994 L 101.99999999999997 330.49999999999994 L 185.99999999999997 414.49999999999994 L 143.99999999999997 457.49999999999994 Z " fill="rgb(255,83,13)" stroke-width="1" stroke="rgba(0,0,0,0)"/><path d=" M -2.842170943040401e-14 312.49999999999994 L -64.00000000000003 249.49999999999994 L 267 -80.50000000000007 L 327 -20.50000000000007 L 286 21.49999999999993 L 267 3.499999999999929 L 20.99999999999997 249.4999999999999 L 41.99999999999997 270.49999999999994" fill="rgb(255,83,13)" stroke-width="1" stroke="rgba(0,0,0,0)"/><path d=" M 390 186 L 453 248.50000000000006 L 123 578.5 L 63 518 L 104 476 L 123 494.5 L 369 248.50000000000006 L 348 227 C 361.97566871808186 213.821621453536 375.44736683128934 200.29331956674355 390 186 Z " fill="rgb(255,83,13)" stroke-width="1" stroke="rgba(0,0,0,0)"/><path d=" M 330 127.49999999999993 L 267 63.999999999999986 L -21.00000000000003 350.99999999999994 L -122.00000000000003 250 L 123.00000000000003 4.000000000000014 L 143.99999999999997 24.49999999999993 L 186.99999999999997 -18.50000000000007 L 123.99999999999997 -81 L -208 248.99999999999994 L -21.00000000000003 436 L 267 148 L 288 168.49999999999994 L 330 127.49999999999993 Z " fill="rgb(255,83,13)" stroke-width="1" stroke="rgba(0,0,0,0)"/></g></g></svg>