<svg version="1" xmlns="http://www.w3.org/2000/svg" width="170.667" height="170.667" viewBox="0 0 128.000000 128.000000"><path d="M0 64v64h128V0H0v64zm45.8-24c4.7 2.1 6.1 4.3 4.2 6.5-1 1.2-1.6 1.1-4.1-.7-3.1-2.3-12.6-3.6-17.3-2.4-5.2 1.3-7.9 6.9-6 12.1.9 2.3 4.8 4.1 14.5 6.5C50.4 65.4 54 68.6 54 76.8c0 5-2.9 9.5-7.6 11.7-5.7 2.8-17.2 2.5-24.1-.4-6.8-3-8.8-5.1-7-7.5 1.3-1.8 1.6-1.7 5.3.7C31.9 88.8 48 86.3 48 77c0-5-3.3-7.3-15-10.5-13-3.5-17-6.7-17-13.7C16 43.5 23 38 35 38c4.3 0 7.9.7 10.8 2zm43.9 12.1c1.5.5 4 2.2 5.6 3.7l2.7 2.6v-3.2c0-2.9.3-3.2 3.1-3.2h3l-.3 21.2c-.3 19.4-.5 21.6-2.4 24.8-3.1 5.4-8.6 8-16.7 8-7.7 0-12.6-1.8-15.7-5.8-1.9-2.3-1.9-2.5-.3-3.8 1.5-1.1 2.2-.9 4.3 1.1 7.1 6.8 19.8 5.7 23.4-2 .9-1.8 1.6-5.2 1.6-7.5v-4.2l-3 2.6c-4.7 3.9-10.1 5.2-15.2 3.7-10.7-3.2-16.7-16.3-12.2-26.9 4-9.6 13.5-14.4 22.1-11.1z"/><path d="M78.8 57.7c-5.9 3.7-8.6 13.9-5.4 20.1 2.9 5.6 6.3 7.7 12.3 7.7 5 0 5.7-.3 8.9-3.7 3.1-3.5 3.4-4.3 3.4-10 0-4.5-.6-7.2-2-9.5-3.6-5.9-11.6-8-17.2-4.6z"/></svg>